<mxfile host="Electron" modified="2023-09-06T07:41:55.108Z" agent="Mozilla/5.0 (Windows NT 10.0; Win64; x64) AppleWebKit/537.36 (KHTML, like Gecko) draw.io/21.6.8 Chrome/114.0.5735.289 Electron/25.5.0 Safari/537.36" etag="rwmvIIJvV_0m_35s1Jra" version="21.6.8" type="device">
  <diagram name="Page-1" id="hGU-7e52UlIYvDcI-QgC">
    <mxGraphModel dx="342" dy="330" grid="1" gridSize="10" guides="1" tooltips="1" connect="1" arrows="1" fold="1" page="1" pageScale="1" pageWidth="850" pageHeight="1100" math="0" shadow="0">
      <root>
        <mxCell id="0" />
        <mxCell id="1" parent="0" />
        <mxCell id="sCrKr-RiGoi3ksjWfrbo-1" value="" style="whiteSpace=wrap;html=1;aspect=fixed;" parent="1" vertex="1">
          <mxGeometry x="160" y="240" width="40" height="40" as="geometry" />
        </mxCell>
        <mxCell id="sCrKr-RiGoi3ksjWfrbo-2" value="&lt;font style=&quot;font-size: 15px;&quot;&gt;A&lt;/font&gt;" style="whiteSpace=wrap;html=1;aspect=fixed;" parent="1" vertex="1">
          <mxGeometry x="200" y="240" width="40" height="40" as="geometry" />
        </mxCell>
        <mxCell id="sCrKr-RiGoi3ksjWfrbo-3" value="" style="whiteSpace=wrap;html=1;aspect=fixed;" parent="1" vertex="1">
          <mxGeometry x="240" y="240" width="40" height="40" as="geometry" />
        </mxCell>
        <mxCell id="sCrKr-RiGoi3ksjWfrbo-4" value="&lt;font style=&quot;font-size: 15px;&quot;&gt;B&lt;/font&gt;" style="whiteSpace=wrap;html=1;aspect=fixed;" parent="1" vertex="1">
          <mxGeometry x="280" y="240" width="40" height="40" as="geometry" />
        </mxCell>
        <mxCell id="sCrKr-RiGoi3ksjWfrbo-5" value="" style="whiteSpace=wrap;html=1;aspect=fixed;" parent="1" vertex="1">
          <mxGeometry x="320" y="240" width="40" height="40" as="geometry" />
        </mxCell>
        <mxCell id="sCrKr-RiGoi3ksjWfrbo-6" value="" style="whiteSpace=wrap;html=1;aspect=fixed;" parent="1" vertex="1">
          <mxGeometry x="160" y="280" width="40" height="40" as="geometry" />
        </mxCell>
        <mxCell id="sCrKr-RiGoi3ksjWfrbo-7" value="" style="whiteSpace=wrap;html=1;aspect=fixed;" parent="1" vertex="1">
          <mxGeometry x="200" y="280" width="40" height="40" as="geometry" />
        </mxCell>
        <mxCell id="sCrKr-RiGoi3ksjWfrbo-8" value="" style="whiteSpace=wrap;html=1;aspect=fixed;" parent="1" vertex="1">
          <mxGeometry x="240" y="280" width="40" height="40" as="geometry" />
        </mxCell>
        <mxCell id="sCrKr-RiGoi3ksjWfrbo-9" value="" style="whiteSpace=wrap;html=1;aspect=fixed;" parent="1" vertex="1">
          <mxGeometry x="280" y="280" width="40" height="40" as="geometry" />
        </mxCell>
        <mxCell id="sCrKr-RiGoi3ksjWfrbo-10" value="" style="whiteSpace=wrap;html=1;aspect=fixed;" parent="1" vertex="1">
          <mxGeometry x="320" y="280" width="40" height="40" as="geometry" />
        </mxCell>
        <mxCell id="sCrKr-RiGoi3ksjWfrbo-11" value="" style="whiteSpace=wrap;html=1;aspect=fixed;" parent="1" vertex="1">
          <mxGeometry x="160" y="320" width="40" height="40" as="geometry" />
        </mxCell>
        <mxCell id="sCrKr-RiGoi3ksjWfrbo-12" value="" style="whiteSpace=wrap;html=1;aspect=fixed;" parent="1" vertex="1">
          <mxGeometry x="200" y="320" width="40" height="40" as="geometry" />
        </mxCell>
        <mxCell id="sCrKr-RiGoi3ksjWfrbo-13" value="" style="whiteSpace=wrap;html=1;aspect=fixed;" parent="1" vertex="1">
          <mxGeometry x="240" y="320" width="40" height="40" as="geometry" />
        </mxCell>
        <mxCell id="sCrKr-RiGoi3ksjWfrbo-14" value="&lt;font style=&quot;font-size: 15px;&quot;&gt;B&#39;&lt;/font&gt;" style="whiteSpace=wrap;html=1;aspect=fixed;" parent="1" vertex="1">
          <mxGeometry x="280" y="320" width="40" height="40" as="geometry" />
        </mxCell>
        <mxCell id="sCrKr-RiGoi3ksjWfrbo-15" value="" style="whiteSpace=wrap;html=1;aspect=fixed;" parent="1" vertex="1">
          <mxGeometry x="320" y="320" width="40" height="40" as="geometry" />
        </mxCell>
        <mxCell id="sCrKr-RiGoi3ksjWfrbo-16" value="" style="whiteSpace=wrap;html=1;aspect=fixed;" parent="1" vertex="1">
          <mxGeometry x="160" y="360" width="40" height="40" as="geometry" />
        </mxCell>
        <mxCell id="sCrKr-RiGoi3ksjWfrbo-17" value="" style="whiteSpace=wrap;html=1;aspect=fixed;" parent="1" vertex="1">
          <mxGeometry x="200" y="360" width="40" height="40" as="geometry" />
        </mxCell>
        <mxCell id="sCrKr-RiGoi3ksjWfrbo-18" value="" style="whiteSpace=wrap;html=1;aspect=fixed;" parent="1" vertex="1">
          <mxGeometry x="240" y="360" width="40" height="40" as="geometry" />
        </mxCell>
        <mxCell id="sCrKr-RiGoi3ksjWfrbo-19" value="" style="whiteSpace=wrap;html=1;aspect=fixed;" parent="1" vertex="1">
          <mxGeometry x="280" y="360" width="40" height="40" as="geometry" />
        </mxCell>
        <mxCell id="sCrKr-RiGoi3ksjWfrbo-20" value="" style="whiteSpace=wrap;html=1;aspect=fixed;" parent="1" vertex="1">
          <mxGeometry x="320" y="360" width="40" height="40" as="geometry" />
        </mxCell>
        <mxCell id="sCrKr-RiGoi3ksjWfrbo-21" value="" style="whiteSpace=wrap;html=1;aspect=fixed;" parent="1" vertex="1">
          <mxGeometry x="160" y="400" width="40" height="40" as="geometry" />
        </mxCell>
        <mxCell id="sCrKr-RiGoi3ksjWfrbo-22" value="&lt;font style=&quot;font-size: 15px;&quot;&gt;A&#39;&lt;/font&gt;" style="whiteSpace=wrap;html=1;aspect=fixed;" parent="1" vertex="1">
          <mxGeometry x="200" y="400" width="40" height="40" as="geometry" />
        </mxCell>
        <mxCell id="sCrKr-RiGoi3ksjWfrbo-23" value="" style="whiteSpace=wrap;html=1;aspect=fixed;" parent="1" vertex="1">
          <mxGeometry x="240" y="400" width="40" height="40" as="geometry" />
        </mxCell>
        <mxCell id="sCrKr-RiGoi3ksjWfrbo-24" value="" style="whiteSpace=wrap;html=1;aspect=fixed;" parent="1" vertex="1">
          <mxGeometry x="280" y="400" width="40" height="40" as="geometry" />
        </mxCell>
        <mxCell id="sCrKr-RiGoi3ksjWfrbo-25" value="" style="whiteSpace=wrap;html=1;aspect=fixed;" parent="1" vertex="1">
          <mxGeometry x="320" y="400" width="40" height="40" as="geometry" />
        </mxCell>
        <mxCell id="sCrKr-RiGoi3ksjWfrbo-27" value="" style="curved=1;endArrow=classic;html=1;rounded=0;fillColor=#0050ef;strokeColor=#001DBC;" parent="1" edge="1">
          <mxGeometry width="50" height="50" relative="1" as="geometry">
            <mxPoint x="229" y="258.5" as="sourcePoint" />
            <mxPoint x="229" y="421.5" as="targetPoint" />
            <Array as="points">
              <mxPoint x="257" y="299" />
              <mxPoint x="253" y="385" />
            </Array>
          </mxGeometry>
        </mxCell>
        <mxCell id="sCrKr-RiGoi3ksjWfrbo-28" value="+10" style="edgeLabel;html=1;align=center;verticalAlign=middle;resizable=0;points=[];" parent="sCrKr-RiGoi3ksjWfrbo-27" vertex="1" connectable="0">
          <mxGeometry x="-0.0402" y="1" relative="1" as="geometry">
            <mxPoint as="offset" />
          </mxGeometry>
        </mxCell>
        <mxCell id="sCrKr-RiGoi3ksjWfrbo-29" value="" style="curved=1;endArrow=classic;html=1;rounded=0;fillColor=#0050ef;strokeColor=#001DBC;" parent="1" edge="1">
          <mxGeometry width="50" height="50" relative="1" as="geometry">
            <mxPoint x="308" y="259" as="sourcePoint" />
            <mxPoint x="310" y="340" as="targetPoint" />
            <Array as="points">
              <mxPoint x="333" y="280" />
              <mxPoint x="327" y="327" />
            </Array>
          </mxGeometry>
        </mxCell>
        <mxCell id="sCrKr-RiGoi3ksjWfrbo-30" value="+5" style="edgeLabel;html=1;align=center;verticalAlign=middle;resizable=0;points=[];" parent="sCrKr-RiGoi3ksjWfrbo-29" vertex="1" connectable="0">
          <mxGeometry x="-0.0402" y="1" relative="1" as="geometry">
            <mxPoint as="offset" />
          </mxGeometry>
        </mxCell>
        <mxCell id="sCrKr-RiGoi3ksjWfrbo-31" value="" style="endArrow=classic;startArrow=classic;html=1;rounded=0;" parent="1" edge="1">
          <mxGeometry width="50" height="50" relative="1" as="geometry">
            <mxPoint x="280" y="379.83" as="sourcePoint" />
            <mxPoint x="320" y="380" as="targetPoint" />
          </mxGeometry>
        </mxCell>
        <mxCell id="sCrKr-RiGoi3ksjWfrbo-32" value="" style="endArrow=classic;startArrow=classic;html=1;rounded=0;" parent="1" edge="1">
          <mxGeometry width="50" height="50" relative="1" as="geometry">
            <mxPoint x="300" y="400" as="sourcePoint" />
            <mxPoint x="299.83" y="360" as="targetPoint" />
          </mxGeometry>
        </mxCell>
        <mxCell id="sCrKr-RiGoi3ksjWfrbo-33" value="&lt;font style=&quot;font-size: 10px;&quot;&gt;Actions（动作）&lt;/font&gt;" style="text;html=1;strokeColor=none;fillColor=none;align=center;verticalAlign=middle;whiteSpace=wrap;rounded=0;" parent="1" vertex="1">
          <mxGeometry x="316" y="365" width="50" height="30" as="geometry" />
        </mxCell>
        <mxCell id="dgyzAFqvMtppsk2DNH5b-1" value="(0,0)0" style="text;html=1;strokeColor=none;fillColor=none;align=center;verticalAlign=middle;whiteSpace=wrap;rounded=0;fontSize=7;fontColor=#808080;" vertex="1" parent="1">
          <mxGeometry x="160" y="250" width="40" height="20" as="geometry" />
        </mxCell>
        <mxCell id="dgyzAFqvMtppsk2DNH5b-2" value="(0,1)1" style="text;html=1;strokeColor=none;fillColor=none;align=center;verticalAlign=middle;whiteSpace=wrap;rounded=0;fontSize=7;fontColor=#808080;" vertex="1" parent="1">
          <mxGeometry x="200" y="240" width="40" height="20" as="geometry" />
        </mxCell>
        <mxCell id="dgyzAFqvMtppsk2DNH5b-3" value="(0,2)2" style="text;html=1;strokeColor=none;fillColor=none;align=center;verticalAlign=middle;whiteSpace=wrap;rounded=0;fontSize=7;fontColor=#808080;" vertex="1" parent="1">
          <mxGeometry x="240" y="250" width="40" height="20" as="geometry" />
        </mxCell>
        <mxCell id="dgyzAFqvMtppsk2DNH5b-4" value="(0,3)3" style="text;html=1;strokeColor=none;fillColor=none;align=center;verticalAlign=middle;whiteSpace=wrap;rounded=0;fontSize=7;fontColor=#808080;" vertex="1" parent="1">
          <mxGeometry x="280" y="240" width="40" height="20" as="geometry" />
        </mxCell>
        <mxCell id="dgyzAFqvMtppsk2DNH5b-5" value="(0,4)4" style="text;html=1;strokeColor=none;fillColor=none;align=center;verticalAlign=middle;whiteSpace=wrap;rounded=0;fontSize=7;fontColor=#808080;" vertex="1" parent="1">
          <mxGeometry x="320" y="250" width="40" height="20" as="geometry" />
        </mxCell>
        <mxCell id="dgyzAFqvMtppsk2DNH5b-6" value="(1,0)5" style="text;html=1;strokeColor=none;fillColor=none;align=center;verticalAlign=middle;whiteSpace=wrap;rounded=0;fontSize=7;fontColor=#808080;" vertex="1" parent="1">
          <mxGeometry x="160" y="290" width="40" height="20" as="geometry" />
        </mxCell>
        <mxCell id="dgyzAFqvMtppsk2DNH5b-7" value="(1,1)6" style="text;html=1;strokeColor=none;fillColor=none;align=center;verticalAlign=middle;whiteSpace=wrap;rounded=0;fontSize=7;fontColor=#808080;" vertex="1" parent="1">
          <mxGeometry x="200" y="290" width="40" height="20" as="geometry" />
        </mxCell>
        <mxCell id="dgyzAFqvMtppsk2DNH5b-8" value="(1,2)7" style="text;html=1;strokeColor=none;fillColor=none;align=center;verticalAlign=middle;whiteSpace=wrap;rounded=0;fontSize=7;fontColor=#808080;" vertex="1" parent="1">
          <mxGeometry x="240" y="290" width="40" height="20" as="geometry" />
        </mxCell>
        <mxCell id="dgyzAFqvMtppsk2DNH5b-11" value="(1,3)8" style="text;html=1;strokeColor=none;fillColor=none;align=center;verticalAlign=middle;whiteSpace=wrap;rounded=0;fontSize=7;fontColor=#808080;" vertex="1" parent="1">
          <mxGeometry x="280" y="290" width="40" height="20" as="geometry" />
        </mxCell>
        <mxCell id="dgyzAFqvMtppsk2DNH5b-12" value="(1,4)9" style="text;html=1;strokeColor=none;fillColor=none;align=center;verticalAlign=middle;whiteSpace=wrap;rounded=0;fontSize=7;fontColor=#808080;" vertex="1" parent="1">
          <mxGeometry x="320" y="300" width="40" height="20" as="geometry" />
        </mxCell>
        <mxCell id="dgyzAFqvMtppsk2DNH5b-13" value="(2,0)10" style="text;html=1;strokeColor=none;fillColor=none;align=center;verticalAlign=middle;whiteSpace=wrap;rounded=0;fontSize=7;fontColor=#808080;" vertex="1" parent="1">
          <mxGeometry x="160" y="330" width="40" height="20" as="geometry" />
        </mxCell>
        <mxCell id="dgyzAFqvMtppsk2DNH5b-14" value="(2,1)11" style="text;html=1;strokeColor=none;fillColor=none;align=center;verticalAlign=middle;whiteSpace=wrap;rounded=0;fontSize=7;fontColor=#808080;" vertex="1" parent="1">
          <mxGeometry x="200" y="330" width="40" height="20" as="geometry" />
        </mxCell>
        <mxCell id="dgyzAFqvMtppsk2DNH5b-15" value="(2,2)12" style="text;html=1;strokeColor=none;fillColor=none;align=center;verticalAlign=middle;whiteSpace=wrap;rounded=0;fontSize=7;fontColor=#808080;" vertex="1" parent="1">
          <mxGeometry x="240" y="340" width="40" height="20" as="geometry" />
        </mxCell>
        <mxCell id="dgyzAFqvMtppsk2DNH5b-16" value="(2,3)13" style="text;html=1;strokeColor=none;fillColor=none;align=center;verticalAlign=middle;whiteSpace=wrap;rounded=0;fontSize=7;fontColor=#808080;" vertex="1" parent="1">
          <mxGeometry x="280" y="320" width="40" height="20" as="geometry" />
        </mxCell>
        <mxCell id="dgyzAFqvMtppsk2DNH5b-17" value="(2,4)14" style="text;html=1;strokeColor=none;fillColor=none;align=center;verticalAlign=middle;whiteSpace=wrap;rounded=0;fontSize=7;fontColor=#808080;" vertex="1" parent="1">
          <mxGeometry x="320" y="330" width="40" height="20" as="geometry" />
        </mxCell>
        <mxCell id="dgyzAFqvMtppsk2DNH5b-18" value="(3,0)15" style="text;html=1;strokeColor=none;fillColor=none;align=center;verticalAlign=middle;whiteSpace=wrap;rounded=0;fontSize=7;fontColor=#808080;" vertex="1" parent="1">
          <mxGeometry x="160" y="370" width="40" height="20" as="geometry" />
        </mxCell>
        <mxCell id="dgyzAFqvMtppsk2DNH5b-19" value="(3,1)16" style="text;html=1;strokeColor=none;fillColor=none;align=center;verticalAlign=middle;whiteSpace=wrap;rounded=0;fontSize=7;fontColor=#808080;" vertex="1" parent="1">
          <mxGeometry x="200" y="370" width="40" height="20" as="geometry" />
        </mxCell>
        <mxCell id="dgyzAFqvMtppsk2DNH5b-20" value="(3,2)17" style="text;html=1;strokeColor=none;fillColor=none;align=center;verticalAlign=middle;whiteSpace=wrap;rounded=0;fontSize=7;fontColor=#808080;" vertex="1" parent="1">
          <mxGeometry x="240" y="370" width="40" height="20" as="geometry" />
        </mxCell>
        <mxCell id="dgyzAFqvMtppsk2DNH5b-21" value="(4,0)20" style="text;html=1;strokeColor=none;fillColor=none;align=center;verticalAlign=middle;whiteSpace=wrap;rounded=0;fontSize=7;fontColor=#808080;" vertex="1" parent="1">
          <mxGeometry x="160" y="410" width="40" height="20" as="geometry" />
        </mxCell>
        <mxCell id="dgyzAFqvMtppsk2DNH5b-22" value="(4,1)21" style="text;html=1;strokeColor=none;fillColor=none;align=center;verticalAlign=middle;whiteSpace=wrap;rounded=0;fontSize=7;fontColor=#808080;" vertex="1" parent="1">
          <mxGeometry x="200" y="400" width="40" height="20" as="geometry" />
        </mxCell>
        <mxCell id="dgyzAFqvMtppsk2DNH5b-23" value="(4,2)22" style="text;html=1;strokeColor=none;fillColor=none;align=center;verticalAlign=middle;whiteSpace=wrap;rounded=0;fontSize=7;fontColor=#808080;" vertex="1" parent="1">
          <mxGeometry x="240" y="410" width="40" height="20" as="geometry" />
        </mxCell>
        <mxCell id="dgyzAFqvMtppsk2DNH5b-24" value="(4,3)23" style="text;html=1;strokeColor=none;fillColor=none;align=center;verticalAlign=middle;whiteSpace=wrap;rounded=0;fontSize=7;fontColor=#808080;" vertex="1" parent="1">
          <mxGeometry x="280" y="410" width="40" height="20" as="geometry" />
        </mxCell>
        <mxCell id="dgyzAFqvMtppsk2DNH5b-25" value="(4,4)24" style="text;html=1;strokeColor=none;fillColor=none;align=center;verticalAlign=middle;whiteSpace=wrap;rounded=0;fontSize=7;fontColor=#808080;" vertex="1" parent="1">
          <mxGeometry x="320" y="410" width="40" height="20" as="geometry" />
        </mxCell>
      </root>
    </mxGraphModel>
  </diagram>
</mxfile>
